<?xml version="1.0" encoding="utf-8"?>
<!-- Generator: Adobe Illustrator 19.0.0, SVG Export Plug-In . SVG Version: 6.00 Build 0)  -->
<svg version="1.1" id="Layer_1" xmlns="http://www.w3.org/2000/svg" xmlns:xlink="http://www.w3.org/1999/xlink" x="0px" y="0px"
	 viewBox="0 0 9.3 9.3" style="enable-background:new 0 0 9.3 9.3;" xml:space="preserve">
<style type="text/css">
	.st0{fill:#8D8D8D;}
</style>
<path id="XMLID_2_" class="st0" d="M6.1,4.6L9,1.7c0.4-0.4,0.4-1,0-1.4s-1-0.4-1.4,0L4.6,3.2L1.7,0.3c-0.4-0.4-1-0.4-1.4,0
	s-0.4,1,0,1.4l2.9,2.9L0.3,7.6c-0.4,0.4-0.4,1,0,1.4C0.5,9.2,0.7,9.3,1,9.3S1.5,9.2,1.7,9l2.9-2.9L7.6,9C7.8,9.2,8,9.3,8.3,9.3
	S8.8,9.2,9,9c0.4-0.4,0.4-1,0-1.4L6.1,4.6z"/>
</svg>
